<?xml version="1.0" encoding="utf-8"?>
<!-- Generator: Adobe Illustrator 21.1.0, SVG Export Plug-In . SVG Version: 6.00 Build 0)  -->
<svg version="1.1" id="图层_1" xmlns="http://www.w3.org/2000/svg" xmlns:xlink="http://www.w3.org/1999/xlink" x="0px" y="0px"
	 viewBox="0 0 90 24" style="enable-background:new 0 0 90 24;" xml:space="preserve">
<style type="text/css">
	.st0{fill:#1D2129;}
	.st1{fill:#FFFFFF;}
	.st2{fill:#3F5468;}
</style>
<desc>Created with Pixso.</desc>
<g id="不通过">
	<path class="st0" d="M39.1,13.2c0.5-0.1,1-0.3,1.5-0.5l0.1,0.9c-0.5,0.2-1.1,0.4-1.6,0.5v3.6c0,0.5-0.1,0.8-0.4,0.9
		c-0.3,0.2-0.8,0.2-1.6,0.2c0-0.2-0.1-0.6-0.3-0.9c0.6,0,1.1,0,1.2,0c0.2,0,0.2-0.1,0.2-0.2v-3.3c-0.5,0.2-1,0.3-1.5,0.5L36.5,14
		c0.5-0.1,1.1-0.3,1.7-0.5v-2.8h-1.6V9.8h1.6V7.2h0.9v2.6h1.6v0.9h-1.6C39.1,10.7,39.1,13.2,39.1,13.2z M56,13.8h5.3v0.9H56v2.9
		c0,0.7-0.2,1-0.7,1.1c-0.5,0.2-1.3,0.2-2.7,0.2c-0.1-0.3-0.3-0.7-0.4-1c1.1,0,2.1,0,2.4,0s0.4-0.1,0.4-0.4v-2.9h-5.3v-0.9H55v-2.1
		h-4.5v-0.9H55v-2c-1.4,0.2-2.9,0.2-4.2,0.3c0-0.3-0.2-0.6-0.2-0.9C53.7,8,57.4,7.6,59.4,7l0.7,0.8C59,8.1,57.6,8.4,56,8.6v2.1h4.6
		v0.9H56V13.8z M41.1,8.5c2.2-0.2,4.7-0.6,6.1-1.1L48,8.1c-0.3,0.1-0.7,0.2-1.1,0.3c0.1,4.1,0.3,7.9,1.6,9.6
		c-0.2,0.2-0.5,0.6-0.7,0.9c-1.4-2-1.7-5.8-1.8-10.3c-0.5,0.1-1,0.2-1.5,0.2v10h-0.9V9c-0.5,0.1-1.1,0.1-1.6,0.2v2
		c0,2.2-0.2,5.4-1.4,7.7c-0.2-0.2-0.6-0.4-0.8-0.5c1.2-2.2,1.3-5.2,1.3-7.2V8.5L41.1,8.5z"/>
</g>
<g id="璺_xE21A_緞_x5F_2643_x5F_1_x5F_">
	<path class="st1" d="M15.6,22.7H8.7l-0.2-0.2C8,21.9,7.1,20.9,6,19.7c-0.6-0.6-1.2-1.1-1.9-1.6c-0.9-0.7-1.5-1.1-1.6-1.7
		c-0.1-0.2-0.1-0.4-0.1-0.6c0-0.8,0.7-1.4,1.5-1.4c0,0,0,0,0.1,0c1.3-0.2,3.9,1.8,3.9,1.8c0.1,0.1,0.2,0.1,0.2,0
		c0.1,0,0.1-0.1,0-0.2c-1.2-2.5-3.3-7.5-3.3-8.7C4.9,6.6,5.3,6,6,5.8c0.4-0.2,0.8-0.2,1.2,0c0.2,0.1,0.3,0.3,0.4,0.4
		c0.1,0.2,0.2,0.4,0.3,0.6C8.1,7.2,8.4,7.6,8.6,8s0.5,0.8,0.7,1.3c0.2,0.4,0.4,0.9,0.7,1.3c0.1,0.1,0.1,0.2,0.2,0.4
		c0,0.1,0.1,0.1,0.2,0.1s0.1-0.1,0.1-0.2c-0.2-2.1-0.4-5.8-0.1-6.7L10.5,4c0.1-0.2,0.3-0.4,0.5-0.5c0.4-0.2,0.8-0.3,1.2-0.2
		c0.5,0.1,0.8,0.4,1,0.7c0.4,1,0.4,5.1,0.3,6.5c0,0.1,0.1,0.2,0.2,0.2c0.1,0,0.2-0.1,0.2-0.1c0.3-1.1,1.2-4.2,1.8-4.9l0.2-0.1
		c0.2-0.1,0.4-0.2,0.6-0.2c0.4,0,0.8,0.1,1.1,0.3s0.6,0.6,0.6,1c0.1,1.1-1.3,4.2-2,5.7c0,0.1,0,0.2,0.1,0.2s0.2,0,0.2-0.1
		c0.5-0.8,2.2-2.8,3.3-3.2c0.2-0.1,0.5-0.1,0.8-0.1c0.4,0.1,0.7,0.3,0.9,0.6s0.3,0.7,0.2,1c-0.3,0.8-0.8,1.7-1.3,2.4
		c-0.7,0.9-1.3,1.9-1.7,2.9c-0.7,1.8-1.3,3.8-1.7,5.7C16.7,22.3,16.2,22.7,15.6,22.7z"/>
</g>
<g id="璺_xE21A_緞_x5F_2643_x5F_1_x5F__1_">
	<path class="st2" d="M8.7,23.5c-0.2,0-0.4-0.1-0.6-0.3L7.9,23c-0.4-0.5-1.4-1.6-2.5-2.7c-0.5-0.5-1.1-1-1.8-1.5
		c-1-0.8-1.7-1.3-1.9-2c-0.1-0.2-0.2-0.5-0.2-0.9c0-1.2,0.9-2.1,2.1-2.2c0.1,0,0.1,0,0.2,0c0.8-0.1,1.8,0.3,2.6,0.8
		c-1-2.3-2.6-6-2.5-7.2c0.1-1,0.8-1.9,1.7-2.2c0.5-0.2,1.2-0.2,1.8,0h0.1C7.8,5.3,8,5.5,8.2,5.9c0,0.1,0.1,0.2,0.2,0.2l0.2,0.2
		c0.2,0.4,0.5,0.8,0.7,1.2C9.4,7.7,9.5,7.8,9.6,8C9.5,6.4,9.5,4.5,9.8,3.8V3.7l0.1-0.1c0.2-0.4,0.5-0.6,0.8-0.8
		c0.5-0.3,1.2-0.4,1.8-0.3c0.6,0.2,1.1,0.5,1.4,1c0,0,0,0.1,0.1,0.1c0.2,0.6,0.3,1.7,0.4,2.9c0.3-0.6,0.5-1.2,0.8-1.5l0.1-0.1
		l0.2-0.1c0,0,0.1,0,0.1-0.1c0.3-0.2,0.6-0.3,0.9-0.3c0.4,0.1,1,0.2,1.5,0.6c0.5,0.3,0.8,0.9,0.9,1.5c0.1,0.7-0.3,1.8-0.7,2.8
		c0.4-0.3,0.9-0.6,1.3-0.8c0.3-0.1,0.8-0.2,1.1-0.1c0.5,0.1,1.1,0.4,1.4,0.9c0.3,0.5,0.4,1,0.3,1.6V11c-0.4,1-0.9,1.9-1.5,2.6
		c-0.6,0.8-1.2,1.8-1.7,2.7c-0.6,1.8-1.2,3.7-1.7,5.6c-0.3,0.9-1.1,1.5-2,1.5L8.7,23.5L8.7,23.5z M9,22h6.6c0.2,0,0.5-0.2,0.5-0.4
		c0.4-1.8,1-3.8,1.7-5.8c0.5-1.1,1.2-2.1,1.9-3c0.5-0.6,0.9-1.3,1.2-2.1c0-0.1,0-0.3-0.1-0.4c-0.1-0.1-0.2-0.2-0.4-0.3
		c-0.1,0-0.3,0-0.4,0c-0.8,0.2-2.2,1.8-2.9,2.9c-0.3,0.4-0.8,0.5-1.2,0.3c-0.5-0.3-0.6-0.8-0.4-1.3c1-2,2-4.5,1.9-5.3
		c0-0.1-0.1-0.3-0.3-0.4C16.9,6.1,16.7,6,16.5,6c-0.1,0-0.2,0-0.3,0.1h-0.1c-0.4,0.5-1.1,2.8-1.6,4.6c-0.1,0.4-0.5,0.7-1,0.7
		c-0.5-0.1-0.9-0.5-0.8-1c0.1-2,0.1-5.3-0.2-6.1C12.4,4.1,12.2,4,12,4c-0.2-0.1-0.4,0-0.6,0.1c-0.1,0.1-0.2,0.2-0.3,0.3
		C11,5,11,7.9,11.3,10.8c0,0.5-0.3,0.9-0.7,1c-0.4,0.1-0.9-0.1-1.1-0.5L9.4,11v-0.1C9.2,10.5,9,10,8.8,9.6C8.6,9.2,8.4,8.8,8.1,8.4
		C7.9,8,7.6,7.6,7.4,7.2L7.2,7C7.1,6.9,7,6.8,7,6.6c0-0.1-0.1-0.1-0.1-0.1c-0.2-0.1-0.4-0.1-0.6,0C5.9,6.6,5.6,7,5.6,7.4
		c0,0.7,1.4,4.5,3.2,8.3c0.2,0.4,0.1,0.8-0.3,1.1c-0.3,0.3-0.8,0.3-1.2,0c-1.1-0.9-2.6-1.7-3.3-1.7c0.1,0,0.2-0.1,0.3-0.2
		C4.2,15,4,15.1,3.8,15.1l0,0c-0.4,0-0.7,0.3-0.7,0.7c0,0.1,0,0.2,0.1,0.3C3.3,16.5,4,17,4.6,17.5c0.7,0.5,1.3,1.1,1.9,1.7
		C7.6,20.4,8.5,21.4,9,22z M7.4,16.3L7.4,16.3L7.4,16.3z M8.2,15.6L8.2,15.6L8.2,15.6z M16.9,12.6L16.9,12.6L16.9,12.6z M10.8,10.6
		L10.8,10.6C10.9,10.6,10.8,10.6,10.8,10.6z M14.2,10.5L14.2,10.5L14.2,10.5z M13.1,10.4L13.1,10.4L13.1,10.4z"/>
</g>
</svg>
