<?xml version="1.0" encoding="utf-8"?>
<!-- Generator: Adobe Illustrator 21.1.0, SVG Export Plug-In . SVG Version: 6.00 Build 0)  -->
<svg version="1.1" id="图层_1" xmlns="http://www.w3.org/2000/svg" xmlns:xlink="http://www.w3.org/1999/xlink" x="0px" y="0px"
	 viewBox="0 0 90 24" style="enable-background:new 0 0 90 24;" xml:space="preserve">
<style type="text/css">
	.st0{fill:#1D2129;}
	.st1{fill:#3F5468;}
	.st2{fill:#9AA9B5;}
</style>
<desc>Created with Pixso.</desc>
<g id="不通过">
	<path class="st0" d="M40.8,9.7h-1.4v0.5c0.4,0.4,1.4,1.7,1.7,1.9l-0.5,0.8c-0.2-0.4-0.7-1.1-1.2-1.7V18h-0.9v-6.2
		c-0.4,1.4-1,2.7-1.6,3.5c-0.1-0.3-0.3-0.7-0.5-0.9c0.8-1,1.6-3,2-4.7h-1.8V8.8h1.9V6.1h0.9v2.7h1.4C40.8,8.8,40.8,9.7,40.8,9.7z
		 M57.8,14.5v-3h-1.3c-0.2,2-0.9,3.5-3.1,4.4c-0.1-0.2-0.4-0.6-0.6-0.8c2-0.7,2.5-1.9,2.7-3.6h-2.3v-0.8h3.6V8.8h-1.9
		c-0.3,0.5-0.5,0.9-0.8,1.3c-0.2-0.1-0.6-0.4-0.8-0.5c0.7-0.8,1.2-1.9,1.5-3.1l0.9,0.2c-0.1,0.4-0.3,0.8-0.4,1.2h1.5V6.2h1v1.7h3
		v0.8h-3v1.9h3.5v0.8h-2.6v3c0,0.3,0.1,0.4,0.4,0.4h1c0.3,0,0.4-0.2,0.4-1.5c0.2,0.2,0.6,0.3,0.9,0.4c-0.1,1.6-0.4,2.1-1.2,2.1H59
		C58,15.8,57.8,15.5,57.8,14.5z M50.6,6.6c0.8,0.6,1.7,1.5,2.1,2.1l-0.8,0.6c-0.4-0.6-1.2-1.5-2-2.2L50.6,6.6z M42.1,7.8v8.7h6.4
		v0.9h-7.3V6.9h7.1v0.9C48.3,7.8,42.1,7.8,42.1,7.8z M42.5,15.2v-0.8h2.2v-2h-1.9v-0.8h1.9V9.8h-2.1V9h5.3v0.8h-2.3v1.8h2v0.8h-2v2
		H48v0.8H42.5z M49.8,11.1h2.5v4.6c0.4,0.1,0.7,0.4,1.3,0.7c0.8,0.5,1.9,0.6,3.3,0.6c1.5,0,3.4-0.1,4.7-0.2c-0.1,0.3-0.3,0.7-0.3,1
		c-1,0.1-3.2,0.1-4.4,0.1c-1.5,0-2.6-0.1-3.4-0.6c-0.5-0.3-0.9-0.7-1.2-0.7c-0.5,0-1.2,0.6-1.9,1.5l-0.6-0.8c0.6-0.5,1.2-1,1.7-1.3
		v-4h-1.6L49.8,11.1L49.8,11.1z"/>
</g>
<g id="polyline">
	<path class="st1" d="M20,20.8h-1.5c-0.4,0-0.8-0.3-0.8-0.8s0.3-0.8,0.8-0.8h0.8v-0.8c0-0.4,0.3-0.8,0.8-0.8s0.8,0.3,0.8,0.8V20
		C20.8,20.4,20.4,20.8,20,20.8z"/>
</g>
<g id="line">
	<path class="st1" d="M15.9,20.8h-2.6c-0.4,0-0.8-0.3-0.8-0.8s0.3-0.8,0.8-0.8h2.6c0.4,0,0.8,0.3,0.8,0.8S16.3,20.8,15.9,20.8z
		 M10.7,20.8H8.1c-0.4,0-0.8-0.3-0.8-0.8s0.3-0.8,0.8-0.8h2.6c0.4,0,0.8,0.3,0.8,0.8S11.1,20.8,10.7,20.8z"/>
</g>
<g id="polyline_1_">
	<path class="st1" d="M5.5,20.8H4c-0.4,0-0.8-0.3-0.8-0.8v-1.5c0-0.4,0.3-0.8,0.8-0.8s0.8,0.3,0.8,0.8v0.8h0.8
		c0.4,0,0.8,0.3,0.8,0.8S5.9,20.8,5.5,20.8z"/>
</g>
<g id="line_1_">
	<path class="st1" d="M4,16.7c-0.4,0-0.8-0.3-0.8-0.8v-2.6c0-0.4,0.3-0.8,0.8-0.8s0.8,0.3,0.8,0.8v2.6C4.8,16.3,4.4,16.7,4,16.7z
		 M4,11.5c-0.4,0-0.8-0.3-0.8-0.8V8.1c0-0.4,0.3-0.8,0.8-0.8s0.8,0.3,0.8,0.8v2.6C4.8,11.1,4.4,11.5,4,11.5z"/>
</g>
<g id="polyline_2_">
	<path class="st1" d="M4,6.3C3.6,6.3,3.2,6,3.2,5.5V4c0-0.4,0.3-0.8,0.8-0.8h1.5c0.4,0,0.8,0.3,0.8,0.8S6,4.8,5.5,4.8H4.7v0.8
		C4.8,5.9,4.4,6.3,4,6.3z"/>
</g>
<g id="line_2_">
	<path class="st1" d="M15.9,4.8h-2.6c-0.4,0-0.8-0.3-0.8-0.8s0.3-0.8,0.8-0.8h2.6c0.4,0,0.8,0.3,0.8,0.8S16.3,4.8,15.9,4.8z
		 M10.7,4.8H8.1C7.7,4.8,7.3,4.5,7.3,4s0.3-0.8,0.8-0.8h2.6c0.4,0,0.8,0.3,0.8,0.8S11.1,4.8,10.7,4.8z"/>
</g>
<g id="polyline_3_">
	<path class="st1" d="M20,6.3c-0.4,0-0.8-0.3-0.8-0.8V4.8h-0.8c-0.4,0-0.8-0.3-0.8-0.8s0.3-0.8,0.8-0.8H20c0.4,0,0.8,0.3,0.8,0.8
		v1.5C20.8,5.9,20.4,6.3,20,6.3z"/>
</g>
<g id="line_3_">
	<path class="st1" d="M20,16.7c-0.4,0-0.8-0.3-0.8-0.8v-2.6c0-0.4,0.3-0.8,0.8-0.8s0.8,0.3,0.8,0.8v2.6C20.8,16.3,20.4,16.7,20,16.7
		z M20,11.5c-0.4,0-0.8-0.3-0.8-0.8V8.1c0-0.4,0.3-0.8,0.8-0.8s0.8,0.3,0.8,0.8v2.6C20.8,11.1,20.4,11.5,20,11.5z"/>
</g>
<g id="rect">
	<rect x="2" y="2" class="st2" width="4" height="4"/>
</g>
<g id="rect_1_">
	<rect x="18" y="18" class="st2" width="4" height="4"/>
</g>
</svg>
