<?xml version="1.0" encoding="utf-8"?>
<!-- Generator: Adobe Illustrator 21.1.0, SVG Export Plug-In . SVG Version: 6.00 Build 0)  -->
<svg version="1.1" id="图层_1" xmlns="http://www.w3.org/2000/svg" xmlns:xlink="http://www.w3.org/1999/xlink" x="0px" y="0px"
	 viewBox="0 0 90 24" style="enable-background:new 0 0 90 24;" xml:space="preserve">
<style type="text/css">
	.st0{fill:#1D2129;}
	.st1{fill:#3F5468;}
	.st2{fill:#9AA9B5;}
	.st3{fill:#FFFFFF;}
</style>
<desc>Created with Pixso.</desc>
<g id="不通过">
	<path class="st0" d="M84.2,6.1v1.5h3v0.9h-3V10h-1V8.5h-3.5V10h-1V8.5h-3V7.6h3V6.1h1v1.5h3.5V6.1H84.2z M39,8.7
		c-0.3-0.5-1-1.3-1.6-1.9l0.7-0.5c0.6,0.5,1.3,1.3,1.6,1.8L39,8.7z M64,6.4c0.7,0.6,1.6,1.4,2,1.9L65.4,9c-0.4-0.6-1.2-1.4-2-2
		L64,6.4z M54.6,13.3h-1.7v2.3c0.6-0.1,1.1-0.3,1.7-0.5l0.1,0.8c-1.8,0.5-3.6,1-5,1.4l-0.2-0.9l0.7-0.2v-4.4H51V16l1-0.3v-5.2h-1.8
		v-4h4.2v4h-1.5v1.8h1.7C54.6,12.3,54.6,13.3,54.6,13.3z M67,6.7h7v10.1c0,0.5-0.1,0.8-0.5,1S72.6,18,71.7,18c0-0.2-0.2-0.7-0.3-0.9
		c0.6,0,1.1,0,1.4,0h0.1c0.2,0,0.3-0.1,0.3-0.3V7.6h-5.3v4c0,2-0.2,4.7-1.4,6.5c-0.2-0.2-0.5-0.4-0.7-0.5c0.4-0.5,0.6-1.1,0.8-1.7
		c-1.7,1.4-2,1.6-2.2,1.8c-0.1-0.2-0.4-0.5-0.6-0.7c0.3-0.2,0.7-0.7,0.7-1.4v-4.5h-1.8v-0.9h2.8v5.4l0.9-0.7
		c0.1,0.2,0.2,0.5,0.3,0.7c0.3-1.3,0.4-2.8,0.4-4V6.7H67z M56.2,14.2v2.3h5.3v0.9h-6.2V6.8h6v0.9h-5v2h4.3v4.5H56.2z M40.6,6.9h7.2
		v10c0,0.5-0.1,0.8-0.5,0.9C47,18,46.4,18,45.6,18c-0.1-0.3-0.2-0.7-0.3-0.9c0.4,0,0.9,0,1.1,0h0.1c0.2,0,0.2-0.1,0.2-0.2v-9h-6.2
		v-1H40.6z M53.5,7.5H51v2.3h2.5V7.5z M68.4,11.8v-0.7H70V9.8h-1.4V9.1H70V8h0.8v1.1h1.4v0.7h-1.4v1.3h1.8v0.7H68.4z M38.2,18h-1V9
		h1V18z M44.9,15.7H40V9.8h4.9V15.7z M44,10.6h-3.1v1.7H44V10.6z M59.6,13.3v-2.7h-3.4v2.7H59.6z M76.3,10.7H86V15
		c0,0.6-0.1,0.9-0.6,1.1s-1.3,0.2-2.5,0.2c0-0.3-0.2-0.7-0.3-1c0.9,0,1.8,0,2.1,0c0.2,0,0.3-0.1,0.3-0.3v-3.4h-4.3V18h-1v-6.3h-3.4
		C76.3,11.7,76.3,10.7,76.3,10.7z M72.1,12.9v3h-2.7v0.6h-0.8v-3.6H72.1z M44,13.2h-3.1v1.7H44V13.2z M71.4,15.2v-1.6h-2v1.6H71.4z"
		/>
</g>
<g id="line">
	<path class="st1" d="M9,12.8H5.1c-0.4,0-0.8-0.3-0.8-0.8s0.3-0.8,0.8-0.8H9c0.4,0,0.8,0.3,0.8,0.8C9.8,12.5,9.4,12.8,9,12.8z"/>
</g>
<g id="polygon">
	<path class="st1" d="M5.9,9.2L1,12l4.9,2.8V9.2z"/>
</g>
<g id="line_1_">
	<path class="st1" d="M18.9,12.8H15c-0.4,0-0.8-0.3-0.8-0.8s0.3-0.8,0.8-0.8h3.9c0.4,0,0.8,0.3,0.8,0.8
		C19.7,12.5,19.3,12.8,18.9,12.8z"/>
</g>
<g id="polygon_1_">
	<path class="st1" d="M18.1,14.8L23,12l-4.9-2.8V14.8z"/>
</g>
<g id="line_2_">
	<path class="st2" d="M15,21.8c-0.4,0-0.8-0.3-0.8-0.8V3c0-0.4,0.3-0.8,0.8-0.8s0.8,0.3,0.8,0.8v18C15.8,21.4,15.4,21.8,15,21.8z"/>
</g>
<g id="line_3_">
	<path class="st3" d="M9.7,21L9.7,21c0,0.4-0.3,0.8-0.7,0.8S8.2,21.5,8.2,21l0,0H9.7z M8.3,3L8.3,3c0-0.4,0.3-0.8,0.7-0.8
		S9.8,2.5,9.8,3l0,0H8.3z"/>
</g>
<g id="line_4_">
	<path class="st2" d="M9,21.8c-0.4,0-0.8-0.3-0.8-0.8V3c0-0.4,0.3-0.8,0.8-0.8S9.8,2.5,9.8,3v18C9.8,21.4,9.4,21.8,9,21.8z"/>
</g>
</svg>
