<?xml version="1.0" encoding="utf-8"?>
<!-- Generator: Adobe Illustrator 21.1.0, SVG Export Plug-In . SVG Version: 6.00 Build 0)  -->
<svg version="1.1" id="图层_1" xmlns="http://www.w3.org/2000/svg" xmlns:xlink="http://www.w3.org/1999/xlink" x="0px" y="0px"
	 viewBox="0 0 90 24" style="enable-background:new 0 0 90 24;" xml:space="preserve">
<style type="text/css">
	.st0{fill:#1D2129;}
	.st1{fill:#9AA9B5;}
	.st2{fill:#3F5468;}
</style>
<desc>Created with Pixso.</desc>
<g id="不通过">
	<path class="st0" d="M45.1,16.6h-1v-2.4h-4v-0.9h4v-1.8h-2c-0.6,0-1.1,0.1-1.2,0.2c-0.1-0.2-0.2-0.7-0.3-0.9
		c0.2-0.1,0.4-0.4,0.7-0.9c0.1-0.2,0.4-0.8,0.8-1.6h-1.8V7.4h2.1c0.2-0.4,0.3-0.9,0.4-1.3l1,0.3c-0.1,0.3-0.2,0.7-0.4,1.1h4.5v0.9
		H43c-0.3,0.8-0.7,1.6-1.1,2.3H44V9h1v1.6h2.5v0.9H45v1.8h3.1v0.9H45L45.1,16.6C45,16.6,45.1,16.6,45.1,16.6z M53.2,11.9l0.1,0.9
		L52,13.2v3.7c0,0.5-0.1,0.8-0.4,0.9C51.3,18,50.8,18,50.1,18c0-0.2-0.1-0.7-0.3-0.9c0.5,0,1,0,1.1,0c0.2,0,0.2-0.1,0.2-0.2v-3.4
		L49.6,14l-0.2-1c0.5-0.1,1.1-0.3,1.7-0.5V9.6h-1.5V8.7h1.5V6.1H52v2.6h1.3v0.9H52v2.6L53.2,11.9z M58,7.5h3v0.8h-7V7.5h3
		c-0.2-0.4-0.4-0.8-0.6-1.1l0.9-0.2C57.5,6.6,57.8,7.1,58,7.5z M37.9,6.3C38.6,7,39.4,8,39.8,8.6L39,9.1c-0.4-0.6-1.1-1.7-1.8-2.4
		L37.9,6.3z M55.7,8.5c0.4,0.5,0.8,1.2,1,1.6l-0.8,0.4C55.7,10,55.3,9.3,55,8.8L55.7,8.5z M58.8,10.5h2.5v0.8h-7.8v-0.8h4.3
		c0.4-0.6,0.8-1.4,1.1-2l0.9,0.2C59.5,9.3,59.2,10,58.8,10.5z M36.6,10.5h2.6v5.1c0.3,0.2,0.5,0.4,1,0.7c0.9,0.5,2,0.6,3.5,0.6
		c1.6,0,3.6-0.1,4.8-0.3c-0.1,0.3-0.3,0.8-0.3,1.1c-0.9,0.1-3.3,0.1-4.6,0.1c-1.7,0-2.8-0.2-3.7-0.7c-0.5-0.4-1-0.8-1.3-0.8
		c-0.4,0-1,0.8-1.6,1.7l-0.7-0.9c0.7-0.8,1.3-1.4,1.9-1.6v-4.1h-1.7L36.6,10.5L36.6,10.5z M61.5,12.8v0.8h-1.6
		c-0.3,1-0.7,1.8-1.3,2.4c1,0.4,1.9,0.9,2.5,1.3L60.5,18c-0.6-0.5-1.6-1-2.6-1.4c-1,0.7-2.4,1.1-4.3,1.4c-0.1-0.3-0.3-0.6-0.4-0.8
		c1.6-0.2,2.8-0.5,3.7-1c-0.9-0.4-1.8-0.7-2.7-1c0.3-0.4,0.7-1,1.1-1.6h-2v-0.8h2.4c0.3-0.5,0.5-0.9,0.7-1.4l0.9,0.2
		c-0.2,0.4-0.4,0.8-0.6,1.2C56.7,12.8,61.5,12.8,61.5,12.8z M57.7,15.6c0.6-0.5,1-1.2,1.2-2h-2.6c-0.2,0.4-0.5,0.9-0.8,1.2
		C56.2,15,57,15.3,57.7,15.6z"/>
</g>
<g id="path">
	<path class="st1" d="M9.2,21.5h12.5c0.7,0,1.2-0.6,1.2-1.2v-5.6c0-0.7-0.6-1.2-1.2-1.2H9.2c-0.7,0-1.2,0.6-1.2,1.2v5.6
		C8,21,8.6,21.5,9.2,21.5z"/>
</g>
<path class="st2" d="M16.3,8.1V5c0-0.4-0.3-0.8-0.8-0.8h-13C2.1,4.2,1.7,4.5,1.7,5S2,5.8,2.5,5.8h12.3v2.3h-2.1l2.8,4.9l2.8-4.9
	H16.3z"/>
</svg>
