<?xml version="1.0" encoding="utf-8"?>
<!-- Generator: Adobe Illustrator 21.1.0, SVG Export Plug-In . SVG Version: 6.00 Build 0)  -->
<svg version="1.1" id="图层_1" xmlns="http://www.w3.org/2000/svg" xmlns:xlink="http://www.w3.org/1999/xlink" x="0px" y="0px"
	 viewBox="0 0 169 45" style="enable-background:new 0 0 169 45;" xml:space="preserve">
<style type="text/css">
	.st0{fill:#FFFFFF;}
	.st1{fill:none;stroke:#8390AC;}
</style>
<path id="活动_1_" class="st0" d="M5,0.5h159c2.5,0,4.5,2,4.5,4.5v35c0,2.5-2,4.5-4.5,4.5H5c-2.5,0-4.5-2-4.5-4.5V5
	C0.5,2.5,2.5,0.5,5,0.5z"/>
<path id="活动" class="st1" d="M5,0.5h159c2.5,0,4.5,2,4.5,4.5v35c0,2.5-2,4.5-4.5,4.5H5c-2.5,0-4.5-2-4.5-4.5V5
	C0.5,2.5,2.5,0.5,5,0.5z"/>
</svg>
