<?xml version="1.0" encoding="utf-8"?>
<!-- Generator: Adobe Illustrator 21.1.0, SVG Export Plug-In . SVG Version: 6.00 Build 0)  -->
<svg version="1.1" id="图层_1" xmlns="http://www.w3.org/2000/svg" xmlns:xlink="http://www.w3.org/1999/xlink" x="0px" y="0px"
	 viewBox="0 0 169 45" style="enable-background:new 0 0 169 45;" xml:space="preserve">
<style type="text/css">
	.st0{fill:#FFFFFF;}
	.st1{fill:#DFE4EA;}
	.st2{fill:none;stroke:#8390AC;}
	.st3{fill:#8390AC;}
</style>
<path id="活动_1_" class="st0" d="M5,0.5h159c2.5,0,4.5,2,4.5,4.5v35c0,2.5-2,4.5-4.5,4.5H5c-2.5,0-4.5-2-4.5-4.5V5
	C0.5,2.5,2.5,0.5,5,0.5z"/>
<g>
	<path id="活动_7_" class="st0" d="M5,0.5h159c2.5,0,4.5,2,4.5,4.5v35c0,2.5-2,4.5-4.5,4.5H5c-2.5,0-4.5-2-4.5-4.5V5
		C0.5,2.5,2.5,0.5,5,0.5z"/>
	<path id="矩形_7735_2_" class="st1" d="M4,1h31v43H4c-1.7,0-3-1.3-3-3V4C1,2.3,2.3,1,4,1z"/>
	<path id="活动_6_" class="st2" d="M5,0.5h159c2.5,0,4.5,2,4.5,4.5v35c0,2.5-2,4.5-4.5,4.5H5c-2.5,0-4.5-2-4.5-4.5V5
		C0.5,2.5,2.5,0.5,5,0.5z"/>
	<g>
		<g>
			<path class="st3" d="M18.6,22.1h4.3v6h-10v-11h5v4.3C17.9,21.8,18.2,22.1,18.6,22.1z"/>
		</g>
		<polygon class="st3" points="23.1,21.1 18.9,21.1 18.9,16.9 		"/>
	</g>
</g>
</svg>
