<?xml version="1.0" encoding="utf-8"?>
<!-- Generator: Adobe Illustrator 21.1.0, SVG Export Plug-In . SVG Version: 6.00 Build 0)  -->
<svg version="1.1" id="图层_1" xmlns="http://www.w3.org/2000/svg" xmlns:xlink="http://www.w3.org/1999/xlink" x="0px" y="0px"
	 viewBox="0 0 171 47" style="enable-background:new 0 0 171 47;" xml:space="preserve">
<style type="text/css">
	.st0{fill:#FFFFFF;}
	.st1{fill:none;stroke:#6620FF;}
	.st2{fill:#E7DCFF;}
	.st3{fill:#6620FF;}
	.st4{fill:none;stroke:#6620FF;stroke-miterlimit:10;}
</style>
<polygon class="st0" points="4.8,2 6.6,0.9 8.1,0.6 167.3,0.6 169.3,2 170.5,5.7 170.5,38.3 168.8,41.3 167.9,43.9 166.9,45.1 
	165.9,45.8 164.2,46.3 34.3,46.3 "/>
<g id="组_5" transform="translate(-1128 -888.203)">
	<path id="路径_1" class="st1" d="M1132.2,892.2L1132.2,892.2c0-1.9,1.6-3.5,3.5-3.5H1294c2.5,0,4.5,2,4.5,4.5v33
		c0,2.5-2,4.5-4.5,4.5l0,0l0,0"/>
	<path id="活动" class="st0" d="M1133,890.7h159c2.5,0,4.5,2,4.5,4.5v35c0,2.5-2,4.5-4.5,4.5h-159c-2.5,0-4.5-2-4.5-4.5v-35
		C1128.5,892.7,1130.5,890.7,1133,890.7z"/>
	<path id="矩形_7735" class="st2" d="M1132,891.2h31v43h-31c-1.7,0-3-1.3-3-3v-37C1129,892.5,1130.3,891.2,1132,891.2L1132,891.2z
		"/>
	<path id="不通过" class="st3" d="M1128,890.2"/>
	<path id="活动-2" class="st1" d="M1133,890.7h159c2.5,0,4.5,2,4.5,4.5v35c0,2.5-2,4.5-4.5,4.5h-159c-2.5,0-4.5-2-4.5-4.5v-35
		C1128.5,892.7,1130.5,890.7,1133,890.7z"/>
	<rect id="矩形_8" x="1140" y="910.5" class="st3" width="9" height="7"/>
	<path id="路径_17" class="st4" d="M1142,909h8.5v7.5"/>
</g>
</svg>
