<?xml version="1.0" encoding="utf-8"?>
<!-- Generator: Adobe Illustrator 21.1.0, SVG Export Plug-In . SVG Version: 6.00 Build 0)  -->
<svg version="1.1" id="图层_1" xmlns="http://www.w3.org/2000/svg" xmlns:xlink="http://www.w3.org/1999/xlink" x="0px" y="0px"
	 viewBox="0 0 169.1 45" style="enable-background:new 0 0 169.1 45;" xml:space="preserve">
<style type="text/css">
	.st0{fill:#FFFFFF;}
	.st1{fill:#FFEED3;}
	.st2{fill:none;stroke:#FFA920;}
	.st3{fill:#FFA920;}
</style>
<polygon class="st0" points="156.3,44.5 32.4,44.3 32.4,0.5 156.7,0.5 168.5,22.5 "/>
<g id="系统接口" transform="translate(-1128 -947.204)">
	<path id="路径_2" class="st1" d="M1128.5,969.4v0.4l11.7,21.7h22.8v-43.8h-22.8L1128.5,969.4z"/>
	<path id="路径_3" class="st2" d="M1284.7,947.7h-144.5l-11.7,21.8v0.5l11.7,21.8h144.5l11.8-22L1284.7,947.7z"/>
	<g id="组_1" transform="translate(1144 964.5)">
		<path id="路径_4" class="st3" d="M8,4V0H1v4H0v7h3v3h3v-3h3V4H8z M6,4H3V1h3V4z"/>
		<rect id="矩形_1" x="3" y="1" class="st0" width="3" height="3"/>
	</g>
</g>
</svg>
