<?xml version="1.0" encoding="utf-8"?>
<!-- Generator: Adobe Illustrator 21.1.0, SVG Export Plug-In . SVG Version: 6.00 Build 0)  -->
<svg version="1.1" id="图层_1" xmlns="http://www.w3.org/2000/svg" xmlns:xlink="http://www.w3.org/1999/xlink" x="0px" y="0px"
	 viewBox="0 0 90 24" style="enable-background:new 0 0 90 24;" xml:space="preserve">
<style type="text/css">
	.st0{fill:#1D2129;}
	.st1{clip-path:url(#SVGID_2_);}
	.st2{fill:#FFFFFF;}
	.st3{fill:#3F5468;}
	.st4{fill:#9AA9B5;}
</style>
<desc>Created with Pixso.</desc>
<g id="不通过">
	<path class="st0" d="M59.9,10.3c-0.4-0.7-0.8-1.4-1.3-1.9L59.4,8c0.9,1.1,1.8,2.6,2.2,3.6L60.7,12c-0.1-0.3-0.2-0.6-0.4-0.9
		c-4.8,0.4-5.4,0.4-5.7,0.6c0-0.2-0.2-0.7-0.3-0.9c0.3-0.1,0.5-0.4,0.8-0.8c0.3-0.5,1.4-2.2,2.1-3.8l1,0.3c-0.7,1.5-1.5,3-2.4,4.2
		L59.9,10.3z M53.3,8.8h0.2l0.6,0.1c-0.2,2.4-0.5,4.2-1.1,5.6c0.6,0.5,1.1,1,1.4,1.4l-0.6,0.8c-0.3-0.4-0.7-0.9-1.2-1.3
		c-0.6,1.2-1.4,2-2.4,2.6c-0.1-0.2-0.4-0.6-0.6-0.8c0.9-0.5,1.7-1.3,2.3-2.5c-0.6-0.5-1.3-1.1-2-1.5c0.3-0.9,0.6-2.2,0.9-3.5h-1.2
		V8.8H51c0.2-0.9,0.3-1.8,0.4-2.6l0.9,0.1c-0.1,0.8-0.2,1.7-0.4,2.5C51.9,8.8,53.3,8.8,53.3,8.8z M45.4,11.6h2.9v0.9h-2.9V18h-1
		v-5.5h-3.7c-0.2,2-0.8,4-3.2,5.5c-0.2-0.2-0.5-0.6-0.8-0.7c2.2-1.3,2.8-3.1,3-4.8h-3v-0.9h3.1c0-0.2,0-0.4,0-0.6V7.9h-2.6V7h10.7
		v0.9h-2.5V11.6z M40.8,11v0.5h3.6V7.8h-3.6V11z M52.2,13.9c0.4-1.1,0.7-2.5,0.9-4.2h-1.5c-0.2,1.1-0.5,2.3-0.8,3.2
		C51.3,13.2,51.8,13.5,52.2,13.9z M55.9,18H55v-5.2h5.7V18h-0.9v-0.5h-3.9C55.9,17.5,55.9,18,55.9,18z M59.8,16.6v-3h-3.9v3H59.8z"
		/>
</g>
<g>
	<g>
		<defs>
			<rect id="SVGID_1_" width="24" height="24"/>
		</defs>
		<clipPath id="SVGID_2_">
			<use xlink:href="#SVGID_1_"  style="overflow:visible;"/>
		</clipPath>
		<g class="st1">
			<g id="polygon">
				<path class="st2" d="M18.6,20H5.4L1,12l4.4-8h13.2l4.4,8L18.6,20z"/>
			</g>
			<g id="polygon_1_">
				<path class="st3" d="M18.6,20.8H5.4c-0.3,0-0.5-0.1-0.7-0.4l-4.4-8c-0.1-0.2-0.1-0.5,0-0.7l4.4-8c0.1-0.2,0.4-0.4,0.7-0.4h13.2
					c0.3,0,0.5,0.1,0.7,0.4l4.4,8c0.1,0.2,0.1,0.5,0,0.7l-4.4,8C19.1,20.6,18.9,20.8,18.6,20.8z M5.8,19.3h12.3l4-7.3l-4-7.3H5.8
					l-4,7.3L5.8,19.3z"/>
			</g>
			<g id="polygon_2_">
				<path class="st4" d="M17.5,11.9L9,7v9.8L17.5,11.9z"/>
			</g>
		</g>
	</g>
</g>
</svg>
