<?xml version="1.0" encoding="utf-8"?>
<!-- Generator: Adobe Illustrator 21.1.0, SVG Export Plug-In . SVG Version: 6.00 Build 0)  -->
<svg version="1.1" id="图层_1" xmlns="http://www.w3.org/2000/svg" xmlns:xlink="http://www.w3.org/1999/xlink" x="0px" y="0px"
	 viewBox="0 0 90 24" style="enable-background:new 0 0 90 24;" xml:space="preserve">
<style type="text/css">
	.st0{fill:#1D2129;}
	.st1{clip-path:url(#SVGID_2_);}
	.st2{fill:#FFFFFF;}
	.st3{fill:#38B062;}
	.st4{fill:#86D9A3;}
</style>
<desc>Created with Pixso.</desc>
<g id="不通过">
	<path class="st0" d="M46,8.9c0.8,0.8,1.8,2,2.3,2.8l-0.8,0.5c-0.2-0.3-0.4-0.6-0.6-0.9c-5.3,0.3-5.9,0.4-6.3,0.5
		c0-0.2-0.2-0.7-0.3-0.9c0.2-0.1,0.6-0.1,0.9-0.4c0.2-0.2,1-1.1,1.5-1.8h-2.5V7.8h3.7c-0.2-0.5-0.4-1-0.6-1.5l0.9-0.2
		c0.3,0.5,0.6,1.2,0.7,1.7h3.4v0.9h-4.5c-0.5,0.6-1.1,1.5-1.6,2l4.1-0.2c-0.3-0.4-0.7-0.8-1-1.2L46,8.9z M66.2,11.9l0.1,0.9L65,13.2
		v3.7c0,0.5-0.1,0.8-0.4,0.9C64.3,18,63.8,18,63.1,18c0-0.2-0.1-0.7-0.3-0.9c0.5,0,1,0,1.1,0c0.2,0,0.2-0.1,0.2-0.2v-3.4L62.6,14
		l-0.2-1c0.5-0.1,1.1-0.3,1.7-0.5V9.6h-1.5V8.7h1.5V6.1H65v2.6h1.3v0.9H65v2.6L66.2,11.9z M52.5,11c0.4,0.4,1.4,1.8,1.6,2.2L53.4,14
		c-0.2-0.4-0.6-1.2-0.9-1.8V18h-0.9v-5.5c-0.5,1.2-1,2.5-1.6,3.2c-0.1-0.3-0.3-0.7-0.5-0.9c0.7-0.9,1.5-2.6,2-4.1h-1.7V9.8h1.8V7.7
		c-0.5,0.1-0.9,0.2-1.4,0.3c-0.1-0.2-0.2-0.5-0.3-0.8c1.2-0.2,2.6-0.6,3.4-1L54,7c-0.4,0.2-0.9,0.4-1.5,0.5v2.3h1.6v0.9h-1.6V11z
		 M71,7.5h3v0.8h-7V7.5h3c-0.2-0.4-0.4-0.8-0.6-1.1l0.9-0.2C70.5,6.6,70.8,7.1,71,7.5z M37.7,6.3c0.8,0.4,1.8,1.1,2.2,1.6l-0.6,0.8
		c-0.5-0.5-1.4-1.2-2.2-1.7L37.7,6.3z M54.7,6.6h6v3.8h-6V6.6z M55.6,9.6h4.1V7.4h-4.1V9.6z M76.7,17.7V7.5h9.6v10.1h-1v-1h-7.6v1.1
		H76.7z M77.7,8.4v7.2h7.6V8.4C85.3,8.4,77.7,8.4,77.7,8.4z M68.7,8.5c0.4,0.5,0.8,1.2,1,1.6l-0.8,0.4C68.7,10,68.3,9.3,68,8.8
		L68.7,8.5z M71.8,10.5h2.5v0.8h-7.8v-0.8h4.3c0.4-0.6,0.8-1.4,1.1-2l0.9,0.2C72.5,9.3,72.2,10,71.8,10.5z M37.1,9.8
		c0.8,0.4,1.9,0.9,2.4,1.3L38.9,12c-0.5-0.4-1.5-1.1-2.4-1.4L37.1,9.8z M74.5,12.8v0.8h-1.6c-0.3,1-0.7,1.8-1.3,2.4
		c1,0.4,1.9,0.9,2.5,1.3L73.5,18c-0.6-0.5-1.6-1-2.6-1.4c-1,0.7-2.4,1.1-4.3,1.4c-0.1-0.3-0.3-0.6-0.4-0.8c1.6-0.2,2.8-0.5,3.7-1
		c-0.9-0.4-1.8-0.7-2.7-1c0.3-0.4,0.7-1,1.1-1.6h-2v-0.8h2.4c0.3-0.5,0.5-0.9,0.7-1.4l0.9,0.2c-0.2,0.4-0.4,0.8-0.6,1.2
		C69.7,12.8,74.5,12.8,74.5,12.8z M58.2,15v1.8h3.2v0.9h-7.5v-0.9h3.4V15h-2.5v-0.9h2.5v-1.7h-2.8v-0.9h6.7v0.9h-2.9v1.7h2.6V15
		H58.2z M39.5,17.3c1.6-1.1,1.7-2.5,1.7-3.7v-1.3h0.9v1.3c0,1.4-0.2,3.1-1.9,4.3C40,17.8,39.7,17.5,39.5,17.3z M46.8,16.9
		c0.1,0,0.1,0.1,0.2,0.1h0.4c0.1,0,0.2,0,0.3-0.1c0.1,0,0.1-0.2,0.1-0.3c0-0.2,0-0.7,0-1.3c0.2,0.1,0.4,0.3,0.7,0.4
		c0,0.6-0.1,1.2-0.1,1.5c-0.1,0.2-0.2,0.4-0.3,0.5c-0.1,0.1-0.4,0.1-0.6,0.1h-0.6c-0.2,0-0.5-0.1-0.7-0.2C46,17.4,46,17.2,46,16.4
		v-4.1h0.9v4.2C46.7,16.7,46.7,16.9,46.8,16.9z M44.4,17.4h-0.9v-5.1h0.9V17.4z M36.9,17.2c0.7-1,1.7-2.7,2.5-4.2l0.7,0.6
		c-0.7,1.4-1.6,3-2.4,4.2L36.9,17.2z M70.7,15.6c0.6-0.5,1-1.2,1.2-2h-2.6c-0.2,0.4-0.5,0.9-0.8,1.2C69.2,15,70,15.3,70.7,15.6z"/>
</g>
<g>
	<g>
		<defs>
			<rect id="SVGID_1_" width="24" height="24"/>
		</defs>
		<clipPath id="SVGID_2_">
			<use xlink:href="#SVGID_1_"  style="overflow:visible;"/>
		</clipPath>
		<g class="st1">
			<g id="polygon">
				<path class="st2" d="M18.6,20H5.4L1,12l4.4-8h13.2l4.4,8L18.6,20z"/>
			</g>
			<g id="polygon_1_">
				<path class="st3" d="M18.6,20.8H5.4c-0.3,0-0.5-0.1-0.7-0.4l-4.4-8c-0.1-0.2-0.1-0.5,0-0.7l4.4-8c0.1-0.2,0.4-0.4,0.7-0.4h13.2
					c0.3,0,0.5,0.1,0.7,0.4l4.4,8c0.1,0.2,0.1,0.5,0,0.7l-4.4,8C19.1,20.6,18.9,20.8,18.6,20.8z M5.8,19.3h12.3l4-7.3l-4-7.3H5.8
					l-4,7.3L5.8,19.3z"/>
			</g>
			<g id="rect">
				<rect x="5" y="10" class="st4" width="5" height="4"/>
			</g>
			<g id="rect_1_">
				<rect x="14" y="10" class="st4" width="5" height="4"/>
			</g>
			<g id="rect_2_">
				<rect x="8" y="11.5" class="st4" width="8" height="1"/>
			</g>
		</g>
	</g>
</g>
</svg>
