<?xml version="1.0" encoding="utf-8"?>
<!-- Generator: Adobe Illustrator 21.1.0, SVG Export Plug-In . SVG Version: 6.00 Build 0)  -->
<svg version="1.1" id="图层_1" xmlns="http://www.w3.org/2000/svg" xmlns:xlink="http://www.w3.org/1999/xlink" x="0px" y="0px"
	 viewBox="0 0 90 24" style="enable-background:new 0 0 90 24;" xml:space="preserve">
<style type="text/css">
	.st0{fill:#1D2129;}
	.st1{clip-path:url(#SVGID_2_);}
	.st2{fill:#FFFFFF;}
	.st3{fill:#3F5468;}
	.st4{fill:#9AA9B5;}
</style>
<desc>Created with Pixso.</desc>
<g id="不通过">
	<path class="st0" d="M48.2,7.8v0.9h-2.9v2H48v0.9h-6.3v-0.9h2.6v-2h-3V7.8h3V6.1h1v1.7H48.2z M60.1,9.8v3.7h-3.6
		c1.2,1.4,3.2,2.6,5,3.2c-0.2,0.2-0.5,0.6-0.7,0.8c-1.7-0.7-3.6-1.9-4.9-3.4V18h-1v-3.7c-1.3,1.4-3.1,2.6-4.8,3.3
		c-0.2-0.2-0.4-0.6-0.7-0.8c1.8-0.6,3.7-1.9,4.9-3.2h-3.6V9.9H55V8.5h-5V7.6h5V6.2h1v1.4h5v0.9h-5v1.4L60.1,9.8L60.1,9.8z M41.2,9.4
		c-0.9,1.4-1.9,2.8-2.9,3.9l2.9-0.5c0,0.3,0,0.6,0.1,0.8c-3.6,0.7-4.1,0.8-4.4,0.9c-0.1-0.2-0.2-0.7-0.3-0.9c0.3-0.1,0.6-0.4,1-0.8
		c0.3-0.3,0.8-0.9,1.4-1.7c-1.7,0.2-2,0.2-2.2,0.3c-0.1-0.2-0.2-0.7-0.3-1c0.2,0,0.5-0.3,0.7-0.8c0.3-0.4,1.2-2,1.7-3.5l1,0.4
		c-0.6,1.3-1.3,2.7-2.1,3.8l1.7-0.2c0.3-0.4,0.6-0.9,0.8-1.4L41.2,9.4z M55,10.7h-3.1v2H55V10.7z M59.2,12.7v-2H56v2H59.2z M42.9,18
		H42v-5h5.7v4.9h-1v-0.5h-3.8C42.9,17.4,42.9,18,42.9,18z M46.7,16.6V14h-3.8v2.6H46.7z M41.3,16.3c-1.6,0.4-3.3,0.7-4.6,1l-0.2-1
		c1.2-0.2,3-0.6,4.7-0.9L41.3,16.3z"/>
</g>
<g>
	<g>
		<defs>
			<rect id="SVGID_1_" width="24" height="24"/>
		</defs>
		<clipPath id="SVGID_2_">
			<use xlink:href="#SVGID_1_"  style="overflow:visible;"/>
		</clipPath>
		<g class="st1">
			<g id="polygon">
				<path class="st2" d="M18.6,20H5.4L1,12l4.4-8h13.2l4.4,8L18.6,20z"/>
			</g>
			<g id="polygon_1_">
				<path class="st3" d="M18.6,20.8H5.4c-0.3,0-0.5-0.1-0.7-0.4l-4.4-8c-0.1-0.2-0.1-0.5,0-0.7l4.4-8c0.1-0.2,0.4-0.4,0.7-0.4h13.2
					c0.3,0,0.5,0.1,0.7,0.4l4.4,8c0.1,0.2,0.1,0.5,0,0.7l-4.4,8C19.1,20.6,18.9,20.8,18.6,20.8z M5.8,19.3h12.3l4-7.3l-4-7.3H5.8
					l-4,7.3L5.8,19.3z"/>
			</g>
			<g id="rect">
				<rect x="8" y="8" class="st4" width="8" height="8"/>
			</g>
		</g>
	</g>
</g>
</svg>
