<?xml version="1.0" encoding="utf-8"?>
<!-- Generator: Adobe Illustrator 21.1.0, SVG Export Plug-In . SVG Version: 6.00 Build 0)  -->
<svg version="1.1" id="图层_1" xmlns="http://www.w3.org/2000/svg" xmlns:xlink="http://www.w3.org/1999/xlink" x="0px" y="0px"
	 viewBox="0 0 90 24" style="enable-background:new 0 0 90 24;" xml:space="preserve">
<style type="text/css">
	.st0{fill:#1D2129;}
	.st1{clip-path:url(#SVGID_2_);}
	.st2{fill:#FFFFFF;}
	.st3{fill:#3F5468;}
</style>
<desc>Created with Pixso.</desc>
<g id="不通过">
	<path class="st0" d="M46.8,7.4H47l0.6,0.3c-0.4,1.4-1.1,2.5-1.9,3.5c0.8,0.8,1.8,1.5,3,1.9c-0.2,0.2-0.5,0.6-0.6,0.8
		c-0.1-0.1-0.3-0.1-0.4-0.2V18h-0.9v-0.4h-3.2V18h-0.9v-4.3c-0.3,0.1-0.5,0.2-0.8,0.4c-0.1-0.2-0.3-0.5-0.5-0.7H40v2.3
		c0.6-0.1,1.1-0.3,1.7-0.4l0.1,0.9c-1.8,0.4-3.6,0.9-5,1.2l-0.2-0.9l0.7-0.1V12H38v4.3l1-0.2v-5.3h-1.8v-4h4.2v3.4
		c1-1,1.9-2.4,2.4-4l0.9,0.2c-0.1,0.4-0.3,0.8-0.4,1.1L46.8,7.4L46.8,7.4z M55.9,6.1v2.5h4.6v9.3h-1v-0.7h-8V18h-1V8.6H55V6.1H55.9z
		 M40.5,7.5h-2.4v2.3h2.4V7.5z M45,10.5c0.5-0.7,1-1.4,1.3-2.2h-2.5l-0.1,0.2C44,9.2,44.5,9.8,45,10.5z M39.9,12.5h1.6v0.6
		c1-0.4,2.1-1.1,2.9-2c-0.5-0.6-0.9-1.2-1.2-1.8c-0.4,0.6-0.8,1.1-1.2,1.5c-0.1-0.1-0.4-0.4-0.7-0.6v0.4h-1.5v1.9H39.9z M55,12.4
		V9.6h-3.5v2.8H55z M59.5,12.4V9.6h-3.6v2.8H59.5z M45,11.8c-0.6,0.6-1.3,1.1-2,1.5h4C46.2,12.9,45.6,12.3,45,11.8z M55,13.4h-3.5
		v2.9H55V13.4z M55.9,13.4v2.9h3.6v-2.9H55.9z M43.4,14.2v2.5h3.2v-2.5H43.4z"/>
</g>
<g>
	<g>
		<g>
			<defs>
				<rect id="SVGID_1_" width="24" height="24"/>
			</defs>
			<clipPath id="SVGID_2_">
				<use xlink:href="#SVGID_1_"  style="overflow:visible;"/>
			</clipPath>
			<g class="st1">
				<g id="rect">
					
						<rect x="4.2" y="4.2" transform="matrix(0.7071 -0.7071 0.7071 0.7071 -4.9707 11.9997)" class="st2" width="15.6" height="15.6"/>
				</g>
				<g id="rect_1_">
					<path class="st3" d="M12,23.8c-0.2,0-0.4-0.1-0.5-0.2l-11-11c-0.1-0.1-0.2-0.3-0.2-0.5s0.1-0.4,0.2-0.5l11-11
						c0.3-0.3,0.8-0.3,1.1,0l11,11c0.1,0.1,0.2,0.3,0.2,0.5c0,0.2-0.1,0.4-0.2,0.5l-11,11C12.4,23.7,12.2,23.8,12,23.8z M2,12l10,10
						l10-10L12,2L2,12z"/>
				</g>
			</g>
		</g>
	</g>
</g>
</svg>
