<?xml version="1.0" encoding="utf-8"?>
<!-- Generator: Adobe Illustrator 21.1.0, SVG Export Plug-In . SVG Version: 6.00 Build 0)  -->
<svg version="1.1" id="图层_1" xmlns="http://www.w3.org/2000/svg" xmlns:xlink="http://www.w3.org/1999/xlink" x="0px" y="0px"
	 viewBox="0 0 90 24" style="enable-background:new 0 0 90 24;" xml:space="preserve">
<style type="text/css">
	.st0{fill:#1D2129;}
	.st1{clip-path:url(#SVGID_2_);}
	.st2{fill:#FFFFFF;}
	.st3{fill:#3F5468;}
</style>
<desc>Created with Pixso.</desc>
<g id="不通过">
	<path class="st0" d="M47,13.5h1.3v0.8H47v2.3h-1V16h-3.1v0.9c0,0.6-0.2,0.8-0.6,1C42,18,41.3,18,40.2,18c-0.1-0.2-0.2-0.6-0.3-0.8
		c0.6,0,1.3,0,1.6,0c0.1,0,0.1,0,0.2,0c0.2,0,0.3-0.1,0.3-0.3V16h-4.2v-0.7H42v-1h-5.3v-0.8H42v-0.9h-4.1v-0.7H42V11h-3.7V8.7H42V8
		h-5.1V7.2H42v-1h1v1h5.2V8H43v0.8h3.9V11H43v0.9h4V13.5z M49.5,11.3c1.2-1.3,2.4-3.2,3-5.2l0.9,0.3c-0.4,0.9-0.8,1.9-1.3,2.8V18
		h-0.9v-7.2c-0.4,0.6-0.8,1.1-1.2,1.5C49.9,12,49.6,11.6,49.5,11.3z M57.8,12.6h3.5v0.9h-3.5V18h-1v-4.5h-3.7v-0.9h3.7V9.8h-2
		c-0.3,0.8-0.6,1.4-0.9,2c-0.2-0.1-0.6-0.4-0.8-0.5c0.8-1.1,1.3-2.8,1.6-4.4l0.9,0.2c-0.1,0.6-0.3,1.2-0.4,1.8h1.7V6.4h1v2.5h3v0.9
		h-3L57.8,12.6L57.8,12.6z M39.2,9.4v0.9H42V9.4H39.2z M45.9,10.3V9.4H43v0.9H45.9z M46.1,12.6H43v0.9h3.1V12.6z M42.9,15.3H46v-1
		h-3.1V15.3z"/>
</g>
<g>
	<g>
		<defs>
			<rect id="SVGID_1_" width="24" height="24"/>
		</defs>
		<clipPath id="SVGID_2_">
			<use xlink:href="#SVGID_1_"  style="overflow:visible;"/>
		</clipPath>
		<g class="st1">
			<g id="polygon">
				<path class="st2" d="M18.6,20H5.4L1,12l4.4-8h13.2l4.4,8L18.6,20z"/>
			</g>
			<g id="polygon_1_">
				<path class="st3" d="M18.6,20.8H5.4c-0.3,0-0.5-0.1-0.7-0.4l-4.4-8c-0.1-0.2-0.1-0.5,0-0.7l4.4-8c0.1-0.2,0.4-0.4,0.7-0.4h13.2
					c0.3,0,0.5,0.1,0.7,0.4l4.4,8c0.1,0.2,0.1,0.5,0,0.7l-4.4,8C19.1,20.6,18.9,20.8,18.6,20.8z M5.8,19.3h12.3l4-7.3l-4-7.3H5.8
					l-4,7.3L5.8,19.3z"/>
			</g>
		</g>
	</g>
</g>
</svg>
