<?xml version="1.0" encoding="utf-8"?>
<!-- Generator: Adobe Illustrator 21.1.0, SVG Export Plug-In . SVG Version: 6.00 Build 0)  -->
<svg version="1.1" id="图层_1" xmlns="http://www.w3.org/2000/svg" xmlns:xlink="http://www.w3.org/1999/xlink" x="0px" y="0px"
	 viewBox="0 0 90 24" style="enable-background:new 0 0 90 24;" xml:space="preserve">
<style type="text/css">
	.st0{fill:#1D2129;}
	.st1{clip-path:url(#SVGID_2_);}
	.st2{fill:#FFFFFF;}
	.st3{fill:#3F5468;}
</style>
<desc>Created with Pixso.</desc>
<g id="不通过">
	<path class="st0" d="M48.4,9.9v0.9h-3.6V13h2.7v5h-0.9v-0.5H42V18h-0.9v-5h2.8v-2.1h-3.7V10h3.7V7.9C43,7.9,42,8.1,41,8.1
		c0-0.2-0.2-0.6-0.3-0.8c2.2-0.2,4.8-0.6,6.3-1.2l0.8,0.8c-0.8,0.3-1.9,0.5-3,0.7v2.3C44.8,9.9,48.4,9.9,48.4,9.9z M37.8,6.3
		c0.8,0.4,1.9,1,2.4,1.3l-0.6,0.8C39.1,8,38,7.4,37.2,7L37.8,6.3z M58.4,6.3c0,0.9,0,1.9,0,2.8h2.9c0,0,0,0.3,0,0.5
		c-0.2,5.3-0.3,7.2-0.8,7.7c-0.3,0.3-0.5,0.4-0.9,0.5c-0.4,0-1.1,0-1.8,0c0-0.3-0.1-0.7-0.3-0.9c0.7,0.1,1.4,0.1,1.7,0.1
		c0.2,0,0.4,0,0.5-0.2c0.3-0.4,0.5-2.1,0.7-6.7h-1.9c-0.2,3.2-0.7,6.1-2.6,8c-0.2-0.2-0.5-0.6-0.8-0.7c1.8-1.6,2.3-4.3,2.4-7.3h-1.8
		V9.2h1.8c0-0.9,0-1.8,0-2.8L58.4,6.3L58.4,6.3z M50.2,7.2h5v0.9h-5V7.2z M37.1,9.8c0.8,0.4,1.8,0.9,2.4,1.3L39,11.9
		c-0.5-0.4-1.6-1-2.4-1.4L37.1,9.8z M54.3,12.3c0.5,1.2,1.1,2.7,1.3,3.6l-0.9,0.3c-0.1-0.2-0.1-0.5-0.2-0.8
		c-3.6,0.8-4.1,0.9-4.4,1.1v-0.1l0,0c0-0.2-0.2-0.6-0.3-0.9c0.2-0.1,0.4-0.4,0.6-0.9c0.2-0.4,0.7-1.9,1.1-3.5h-1.8v-0.9h5.7v0.9
		h-2.9c-0.3,1.4-0.8,2.8-1.3,4l3.1-0.7c-0.2-0.7-0.5-1.4-0.8-2L54.3,12.3z M40.1,13.6c-0.7,1.4-1.6,3-2.4,4.2l-0.8-0.7
		c0.7-1,1.7-2.7,2.5-4.2L40.1,13.6z M42,16.5h4.6v-2.7H42V16.5z"/>
</g>
<g>
	<g>
		<defs>
			<rect id="SVGID_1_" width="24" height="24"/>
		</defs>
		<clipPath id="SVGID_2_">
			<use xlink:href="#SVGID_1_"  style="overflow:visible;"/>
		</clipPath>
		<g class="st1">
			<g id="path">
				<path class="st2" d="M20.9,19H3.1C2.5,19,2,18.5,2,17.9V6.1C2,5.5,2.5,5,3.1,5h17.7C21.5,5,22,5.5,22,6.1v11.7
					C22,18.5,21.5,19,20.9,19z"/>
			</g>
			<g id="path_1_">
				<path class="st3" d="M20.9,19.8H3.1c-1,0-1.8-0.8-1.8-1.8V6.1c0-1,0.8-1.9,1.8-1.9h17.7c1.1,0,1.9,0.8,1.9,1.9v11.7
					C22.8,18.9,21.9,19.8,20.9,19.8z M3.1,5.8C2.9,5.8,2.8,6,2.8,6.2V18c0,0.2,0.2,0.3,0.3,0.3h17.8c0.2,0,0.3-0.2,0.3-0.5V6.1
					c0-0.2-0.2-0.4-0.4-0.4L3.1,5.8L3.1,5.8z"/>
			</g>
		</g>
	</g>
</g>
</svg>
