<?xml version="1.0" encoding="utf-8"?>
<!-- Generator: Adobe Illustrator 21.1.0, SVG Export Plug-In . SVG Version: 6.00 Build 0)  -->
<svg version="1.1" id="图层_1" xmlns="http://www.w3.org/2000/svg" xmlns:xlink="http://www.w3.org/1999/xlink" x="0px" y="0px"
	 viewBox="0 0 90 24" style="enable-background:new 0 0 90 24;" xml:space="preserve">
<style type="text/css">
	.st0{fill:#1D2129;}
	.st1{clip-path:url(#SVGID_2_);}
	.st2{fill:#FFFFFF;}
	.st3{fill:#3F5468;}
</style>
<desc>Created with Pixso.</desc>
<g id="不通过">
	<path class="st0" d="M42.5,6.1c0.4,0.6,0.8,1.4,1,2l-1.1,0.3c-0.2-0.5-0.6-1.4-1-2L42.5,6.1z M49.5,11.3c1.2-1.3,2.4-3.2,3-5.2
		l0.9,0.3c-0.4,0.9-0.8,1.9-1.3,2.8V18h-0.9v-7.2c-0.4,0.6-0.8,1.1-1.2,1.5C49.9,12,49.6,11.6,49.5,11.3z M57.8,12.6h3.5v0.9h-3.5
		V18h-1v-4.5h-3.7v-0.9h3.7V9.8h-2c-0.3,0.8-0.6,1.4-0.9,2c-0.2-0.1-0.6-0.4-0.8-0.5c0.8-1.1,1.3-2.8,1.6-4.4l0.9,0.2
		c-0.1,0.6-0.3,1.2-0.4,1.8h1.7V6.4h1v2.5h3v0.9h-3L57.8,12.6L57.8,12.6z M48.3,8.4v0.9h-2c-0.7,2.1-1.7,3.7-3,5
		c1.4,1.2,3.2,2.1,5.2,2.6c-0.2,0.2-0.5,0.6-0.7,0.9c-2.1-0.6-3.9-1.5-5.3-2.8c-1.5,1.3-3.3,2.2-5.4,2.9c-0.1-0.2-0.4-0.7-0.6-0.9
		c2.1-0.6,3.9-1.5,5.3-2.7c-1.3-1.4-2.4-3.1-3.1-5h-2V8.4H48.3z M42.5,13.7c1.2-1.2,2-2.6,2.7-4.4h-5.5C40.4,11,41.3,12.5,42.5,13.7
		z"/>
</g>
<g>
	<g>
		<defs>
			<rect id="SVGID_1_" width="24" height="24"/>
		</defs>
		<clipPath id="SVGID_2_">
			<use xlink:href="#SVGID_1_"  style="overflow:visible;"/>
		</clipPath>
		<g class="st1">
			<g id="polygon">
				<path class="st2" d="M4,20V4h11v5h5v11H4z"/>
			</g>
			<g id="polygon_1_">
				<path class="st3" d="M20,20.8H4c-0.4,0-0.8-0.3-0.8-0.8V4c0-0.4,0.3-0.8,0.8-0.8h11c0.4,0,0.8,0.3,0.8,0.8v4.3H20
					c0.4,0,0.8,0.3,0.8,0.8v11C20.8,20.4,20.4,20.8,20,20.8z M4.8,19.3h14.5V9.8H15c-0.4,0-0.8-0.3-0.8-0.8V4.8H4.7L4.8,19.3
					L4.8,19.3z"/>
			</g>
			<g id="line">
				<path class="st2" d="M14.5,4.7L14.5,4.7c-0.3-0.3-0.3-0.8,0-1.1c0.3-0.3,0.8-0.3,1.1,0l0,0L14.5,4.7z M20.2,8.3L20.2,8.3
					c0.3,0.3,0.3,0.8,0,1.1s-0.8,0.3-1.1,0l0,0L20.2,8.3z"/>
			</g>
			<g id="line_1_">
				<path class="st3" d="M19.7,9.6c-0.2,0-0.4-0.1-0.5-0.2l-4.7-4.7c-0.3-0.3-0.3-0.8,0-1.1s0.8-0.3,1.1,0l4.7,4.7
					c0.3,0.3,0.3,0.8,0,1.1C20.1,9.6,19.9,9.6,19.7,9.6z"/>
			</g>
		</g>
	</g>
</g>
</svg>
