<?xml version="1.0" encoding="utf-8"?>
<!-- Generator: Adobe Illustrator 21.1.0, SVG Export Plug-In . SVG Version: 6.00 Build 0)  -->
<svg version="1.1" id="图层_1" xmlns="http://www.w3.org/2000/svg" xmlns:xlink="http://www.w3.org/1999/xlink" x="0px" y="0px"
	 viewBox="0 0 90 24" style="enable-background:new 0 0 90 24;" xml:space="preserve">
<style type="text/css">
	.st0{fill:#1D2129;}
	.st1{clip-path:url(#SVGID_2_);}
	.st2{fill:#FFFFFF;}
	.st3{fill:#3F5468;}
</style>
<desc>Created with Pixso.</desc>
<g id="不通过">
	<path class="st0" d="M54,15.8V9.7h2.2c0.1-0.3,0.2-0.7,0.3-1.1h-3.4V7.8h2.2c-0.2-0.4-0.5-1-0.9-1.4l0.8-0.3c0.4,0.4,0.8,1,0.9,1.5
		l-0.7,0.3h2.4c0.4-0.5,0.8-1.2,1-1.7l0.9,0.3c-0.3,0.5-0.6,1-0.9,1.4h2.4v0.8h-3.7c-0.2,0.4-0.3,0.8-0.5,1.1h3.1v6.1H54V15.8z
		 M42.2,6.2c1.3,0.3,3.1,0.9,4,1.4l-0.5,0.8c-0.9-0.5-2.6-1.2-4-1.5L42.2,6.2z M37.7,6.2c0.8,0.4,1.9,1,2.4,1.4l-0.6,0.8
		C39,7.9,38,7.3,37.1,6.9L37.7,6.2z M50.6,6.6c0.7,0.6,1.5,1.5,1.9,2.1l-0.8,0.5c-0.4-0.6-1.2-1.5-1.8-2.2L50.6,6.6z M45.4,12.3
		c0.7-0.7,1.6-1.6,2.1-2.3l0.8,0.6c-0.8,0.8-1.8,1.8-2.6,2.4c0.7,1.4,1.7,2.6,2.9,3.3c-0.2,0.2-0.5,0.5-0.7,0.8
		c-1.4-0.9-2.5-2.6-3.2-4.6v4.3c0,0.6-0.1,0.9-0.5,1c-0.4,0.2-1,0.2-2,0.2c0-0.3-0.2-0.7-0.3-0.9c0.7,0,1.4,0,1.6,0
		c0.2,0,0.3-0.1,0.3-0.2V9.8H41V8.9h3.7V10C44.8,10.8,45.1,11.6,45.4,12.3z M37,9.7c0.8,0.3,1.9,0.9,2.4,1.3l-0.5,0.8
		c-0.5-0.4-1.6-1-2.4-1.4L37,9.7z M54.9,11.5h4.3v-1.1h-4.3V11.5z M49.7,10.7h2.7v4.9c0.3,0.1,0.5,0.4,1,0.6
		c0.8,0.5,1.9,0.5,3.4,0.5s3.4-0.1,4.7-0.2c-0.1,0.2-0.2,0.7-0.3,1c-0.9,0.1-3.2,0.1-4.4,0.1c-1.5,0-2.7-0.1-3.5-0.6
		c-0.5-0.3-0.9-0.7-1.3-0.7s-1.1,0.7-1.8,1.5L49.6,17c0.7-0.7,1.3-1.2,1.9-1.4v-4h-1.8L49.7,10.7L49.7,10.7z M42.3,11.2h0.2l0.6,0.2
		c-0.5,2.7-1.7,4.7-3.1,5.8c-0.1-0.2-0.4-0.5-0.6-0.7c1.2-0.8,2.2-2.4,2.7-4.4h-2.2v-0.9C39.9,11.2,42.3,11.2,42.3,11.2z M54.9,13.3
		h4.3v-1.1h-4.3V13.3z M36.9,17.2c0.6-1,1.5-2.7,2.2-4.2l0.7,0.6c-0.6,1.4-1.4,3-2.1,4.2L36.9,17.2z M54.9,15.1h4.3V14h-4.3V15.1z"
		/>
</g>
<g>
	<g>
		<defs>
			<rect id="SVGID_1_" width="24" height="24"/>
		</defs>
		<clipPath id="SVGID_2_">
			<use xlink:href="#SVGID_1_"  style="overflow:visible;"/>
		</clipPath>
		<g class="st1">
			<g id="path">
				<path class="st2" d="M20.9,19H3.1C2.5,19,2,18.5,2,17.9V6.1C2,5.5,2.5,5,3.1,5h17.7C21.5,5,22,5.5,22,6.1v11.7
					C22,18.5,21.5,19,20.9,19z"/>
			</g>
			<g id="path_1_">
				<path class="st3" d="M20.9,19.8H3.1c-1,0-1.8-0.8-1.8-1.8V6.1c0-1,0.8-1.9,1.8-1.9h17.7c1.1,0,1.9,0.8,1.9,1.9v11.7
					C22.8,18.9,21.9,19.8,20.9,19.8z M3.1,5.8C2.9,5.8,2.8,6,2.8,6.2V18c0,0.2,0.2,0.3,0.3,0.3h17.8c0.2,0,0.3-0.2,0.3-0.5V6.1
					c0-0.2-0.2-0.4-0.4-0.4L3.1,5.8L3.1,5.8z"/>
			</g>
			<g id="line">
				<rect x="2" y="9.3" class="st3" width="20" height="1.5"/>
			</g>
			<g id="line_1_">
				<rect x="8.3" y="10" class="st3" width="1.5" height="9"/>
			</g>
			<g id="line_2_">
				<rect x="14.3" y="10" class="st3" width="1.5" height="9"/>
			</g>
		</g>
	</g>
</g>
</svg>
