<?xml version="1.0" encoding="utf-8"?>
<!-- Generator: Adobe Illustrator 21.1.0, SVG Export Plug-In . SVG Version: 6.00 Build 0)  -->
<svg version="1.1" id="图层_1" xmlns="http://www.w3.org/2000/svg" xmlns:xlink="http://www.w3.org/1999/xlink" x="0px" y="0px"
	 viewBox="0 0 90 24" style="enable-background:new 0 0 90 24;" xml:space="preserve">
<style type="text/css">
	.st0{fill:#1D2129;}
	.st1{clip-path:url(#SVGID_2_);}
	.st2{fill:#FFFFFF;}
	.st3{fill:#6620FF;}
</style>
<desc>Created with Pixso.</desc>
<g id="不通过">
	<path class="st0" d="M54,8.7c-0.3-0.5-0.6-1-0.9-1.4L53.9,7c0.7,0.9,1.4,2,1.7,2.8l-0.8,0.4c-0.1-0.2-0.2-0.4-0.3-0.7
		c-3.5,0.3-4,0.3-4.3,0.4C50.1,9.7,50,9.2,49.9,9c0.2-0.1,0.4-0.2,0.6-0.5s0.9-1.3,1.4-2.3l1,0.3c-0.4,0.9-1,1.7-1.6,2.4L54,8.7z
		 M72,8.9c0.8,0.8,1.8,2,2.3,2.8l-0.8,0.5c-0.2-0.3-0.4-0.6-0.6-0.9c-5.3,0.3-5.9,0.4-6.3,0.5c0-0.2-0.2-0.7-0.3-0.9
		c0.2-0.1,0.6-0.1,0.9-0.4c0.2-0.2,1-1.1,1.5-1.8h-2.5V7.8h3.7c-0.2-0.5-0.4-1-0.6-1.5l0.9-0.2c0.3,0.5,0.6,1.2,0.7,1.7h3.4v0.9
		h-4.5c-0.5,0.6-1.1,1.5-1.6,2l4.1-0.2c-0.3-0.4-0.7-0.8-1-1.2L72,8.9z M61.4,9.8c-0.1,1.6-0.4,2-1.4,2h-2.2c-1.2,0-1.5-0.3-1.5-1.4
		V6.1h0.9v2.2c1.1-0.4,2.3-0.8,3-1.2l0.7,0.7c-1,0.5-2.4,0.9-3.7,1.3v1.3c0,0.4,0.1,0.5,0.7,0.5H60c0.5,0,0.6-0.2,0.7-1.5
		C60.7,9.6,61.1,9.7,61.4,9.8z M78.5,11c0.4,0.4,1.4,1.8,1.6,2.2L79.4,14c-0.2-0.4-0.6-1.2-0.9-1.8V18h-0.9v-5.5
		c-0.5,1.2-1,2.5-1.6,3.2c-0.1-0.3-0.3-0.7-0.5-0.9c0.7-0.9,1.5-2.6,2-4.1h-1.7V9.8h1.8V7.7c-0.5,0.1-0.9,0.2-1.4,0.3
		c-0.1-0.2-0.2-0.5-0.3-0.8c1.2-0.2,2.6-0.6,3.4-1L80,7c-0.4,0.2-0.9,0.4-1.5,0.5v2.3h1.6v0.9h-1.6V11z M63.7,6.3
		c0.8,0.4,1.8,1.1,2.2,1.6l-0.6,0.8c-0.5-0.5-1.4-1.2-2.2-1.7L63.7,6.3z M80.7,6.6h6v3.8h-6V6.6z M41.9,14.4l0.1,0.8l-0.9,0.2V18
		h-0.9v-2.4l-3.4,0.6l-0.2-0.9l0.9-0.1V7.7h-0.7V6.8h5.1v0.9h-0.8v7L41.9,14.4z M42.3,7h5.5v5.7h-5.5C42.3,12.7,42.3,7,42.3,7z
		 M81.6,9.6h4.1V7.4h-4.1V9.6z M40.2,9.4V7.6h-1.9v1.8H40.2z M43.2,11.8h3.6V8h-3.6C43.2,8,43.2,11.8,43.2,11.8z M63.1,9.8
		c0.8,0.4,1.9,0.9,2.4,1.3L64.9,12c-0.5-0.4-1.5-1.1-2.4-1.4L63.1,9.8z M40.2,10.2h-1.9v1.9h1.9V10.2z M50.4,10.7H55v6.2
		c0,0.5-0.1,0.8-0.5,0.9C54.1,18,53.6,18,52.8,18c-0.1-0.3-0.2-0.6-0.3-0.9c0.6,0,1.2,0,1.3,0c0.2,0,0.2,0,0.2-0.2v-1.5h-2.7V18
		h-0.9V10.7z M84.2,15v1.8h3.2v0.9h-7.5v-0.9h3.4V15h-2.5v-0.9h2.5v-1.7h-2.8v-0.9h6.7v0.9h-2.9v1.7h2.6V15H84.2z M54,12.6v-1.1
		h-2.7v1.1H54z M57.1,16.5c0,0.4,0.1,0.5,0.7,0.5h2.1c0.5,0,0.6-0.3,0.7-1.7c0.2,0.1,0.6,0.3,0.9,0.3c-0.1,1.8-0.4,2.2-1.5,2.2h-2.3
		c-1.3,0-1.6-0.3-1.6-1.4V12H57v2c1.2-0.4,2.4-0.9,3.2-1.4l0.6,0.7c-1,0.6-2.5,1.1-3.8,1.4v1.8H57.1z M65.5,17.3
		c1.6-1.1,1.7-2.5,1.7-3.7v-1.3h0.9v1.3c0,1.4-0.2,3.1-1.9,4.3C66,17.8,65.7,17.5,65.5,17.3z M72.8,16.9c0.1,0,0.1,0.1,0.2,0.1h0.4
		c0.1,0,0.2,0,0.3-0.1c0.1,0,0.1-0.2,0.1-0.3c0-0.2,0-0.7,0-1.3c0.2,0.1,0.4,0.3,0.7,0.4c0,0.6-0.1,1.2-0.1,1.5
		c-0.1,0.2-0.2,0.4-0.3,0.5c-0.1,0.1-0.4,0.1-0.6,0.1h-0.6c-0.2,0-0.5-0.1-0.7-0.2C72,17.4,72,17.2,72,16.4v-4.1h0.9v4.2
		C72.7,16.7,72.7,16.9,72.8,16.9z M70.4,17.4h-0.9v-5.1h0.9V17.4z M40.2,12.9h-1.9V15c0.6-0.1,1.2-0.2,1.9-0.3V12.9z M62.9,17.2
		c0.7-1,1.7-2.7,2.5-4.2l0.7,0.6c-0.7,1.4-1.6,3-2.4,4.2L62.9,17.2z M51.3,13.4v1.2H54v-1.2H51.3z M47.5,17.9
		c-0.3-0.9-1-2.4-1.7-3.5l0.9-0.3c0.7,1.1,1.4,2.6,1.7,3.5L47.5,17.9z M41.4,17.4c0.8-0.8,1.5-2.1,1.9-3.4l0.9,0.2
		c-0.4,1.5-1.2,2.8-2,3.7C42.1,17.8,41.7,17.6,41.4,17.4z"/>
</g>
<g>
	<g>
		<g>
			<defs>
				<rect id="SVGID_1_" width="24" height="24"/>
			</defs>
			<clipPath id="SVGID_2_">
				<use xlink:href="#SVGID_1_"  style="overflow:visible;"/>
			</clipPath>
			<g class="st1">
				<g id="path">
					<path class="st2" d="M21,17H5c-0.6,0-1-0.5-1-1V5c0-0.6,0.5-1,1-1h16c0.6,0,1,0.5,1,1v11C22,16.5,21.5,17,21,17z"/>
				</g>
				<g id="path_1_">
					<path class="st3" d="M21,17.8H5c-1,0-1.8-0.8-1.8-1.8V5C3.2,4,4,3.2,5,3.2h16c1,0,1.8,0.8,1.8,1.8v11
						C22.8,16.9,21.9,17.8,21,17.8z M5,4.8c-0.1,0-0.3,0.1-0.3,0.3v11c0,0.1,0.1,0.3,0.3,0.3h16c0.1,0,0.3-0.2,0.3-0.3V5
						c0-0.1-0.1-0.3-0.3-0.3H5V4.8z"/>
				</g>
				<g id="path_2_">
					<path class="st2" d="M18,20H3c-0.6,0-1-0.5-1-1V8c0-0.6,0.5-1,1-1h15c0.6,0,1,0.5,1,1v11C19,19.5,18.5,20,18,20z"/>
				</g>
				<g id="path_3_">
					<path class="st3" d="M18,20.8H3c-1,0-1.8-0.8-1.8-1.8V8C1.2,7,2,6.2,3,6.2h15c1,0,1.8,0.8,1.8,1.8v11
						C19.8,19.9,18.9,20.8,18,20.8z M3,7.8c-0.1,0-0.3,0.1-0.3,0.3v11c0,0.1,0.1,0.3,0.3,0.3h15c0.1,0,0.3-0.2,0.3-0.3V8
						c0-0.1-0.1-0.3-0.3-0.3H3V7.8z"/>
				</g>
			</g>
		</g>
	</g>
</g>
</svg>
