<?xml version="1.0" encoding="utf-8"?>
<!-- Generator: Adobe Illustrator 21.1.0, SVG Export Plug-In . SVG Version: 6.00 Build 0)  -->
<svg version="1.1" id="图层_1" xmlns="http://www.w3.org/2000/svg" xmlns:xlink="http://www.w3.org/1999/xlink" x="0px" y="0px"
	 viewBox="0 0 90 24" style="enable-background:new 0 0 90 24;" xml:space="preserve">
<style type="text/css">
	.st0{fill:#1D2129;}
	.st1{clip-path:url(#SVGID_2_);}
	.st2{fill:#FFFFFF;}
	.st3{fill:#FFA920;}
	.st4{fill:#FFD084;}
</style>
<desc>Created with Pixso.</desc>
<g id="不通过">
	<path class="st0" d="M54.1,9.3c-0.8,1.4-1.8,2.8-2.8,3.9l2.4-0.5c0,0.3,0,0.7,0,0.8c-3.2,0.7-3.6,0.8-3.9,1
		c-0.1-0.2-0.2-0.7-0.3-0.9c0.3-0.1,0.6-0.4,1-0.9c0.2-0.2,0.7-0.9,1.3-1.7c-1.5,0.2-1.8,0.3-2,0.4c-0.1-0.2-0.2-0.7-0.3-1
		c0.2-0.1,0.5-0.3,0.8-0.8c0.3-0.4,1.3-2.1,1.8-3.7l1,0.5c-0.6,1.4-1.4,2.8-2.2,3.9l1.6-0.2c0.3-0.5,0.6-0.9,0.8-1.4L54.1,9.3z
		 M59.4,9.4c0.7,0.9,1.5,2.1,1.9,2.8l-0.8,0.5c-0.1-0.3-0.3-0.6-0.5-0.9c-4.7,0.4-5.2,0.5-5.6,0.7c-0.1-0.2-0.2-0.7-0.3-0.9
		c0.2-0.1,0.6-0.2,0.8-0.4c0.3-0.3,1.2-1.5,1.8-2.3h-2.3V8h3.1c-0.1-0.4-0.5-1.1-0.7-1.7l0.9-0.2c0.3,0.5,0.6,1.2,0.8,1.7L57.6,8
		h3.7v0.9h-3.5c-0.5,0.8-1.3,1.8-1.9,2.5l3.6-0.3c-0.3-0.4-0.6-0.8-0.9-1.2L59.4,9.4z M66.2,11.9l0.1,0.9L65,13.2v3.7
		c0,0.5-0.1,0.8-0.4,0.9C64.3,18,63.8,18,63.1,18c0-0.2-0.1-0.7-0.3-0.9c0.5,0,1,0,1.1,0c0.2,0,0.2-0.1,0.2-0.2v-3.4L62.6,14l-0.2-1
		c0.5-0.1,1.1-0.3,1.7-0.5V9.6h-1.5V8.7h1.5V6.1H65v2.6h1.3v0.9H65v2.6L66.2,11.9z M47.2,14.2c-0.2-0.3-0.5-0.7-0.9-1.2l-3.2,0.2
		v3.5c0,0.5-0.1,0.8-0.5,1s-1.1,0.2-2,0.2c0-0.3-0.2-0.7-0.4-0.9c0.8,0,1.5,0,1.7,0s0.3-0.1,0.3-0.2v-3.4c-3.5,0.3-4.1,0.3-4.4,0.5
		c0-0.2-0.2-0.6-0.3-0.9c0.4-0.1,1-0.3,1.8-0.7c0.4-0.2,1.4-0.7,2.5-1.4c-2.6,0.2-3.1,0.2-3.3,0.3c-0.1-0.2-0.2-0.6-0.3-0.9
		c0.3,0,0.6-0.2,0.9-0.5c0.3-0.2,1.3-1,2.1-1.9C40,8,38.8,8,37.7,8.1c0-0.2-0.1-0.6-0.2-0.8c3.1-0.2,6.9-0.5,9-1l0.7,0.8
		c-1.2,0.3-2.8,0.5-4.5,0.7c-0.8,0.9-1.8,1.7-2.7,2.4l3-0.2c0.7-0.5,1.4-1,2.1-1.5l0.7,0.6c-1.9,1.4-3.9,2.6-5.8,3.6l5.7-0.4
		c-0.3-0.4-0.7-0.7-1-1.1l0.7-0.4c1,0.9,2.1,2.1,2.7,2.9L47.2,14.2z M71,7.5h3v0.8h-7V7.5h3c-0.2-0.4-0.4-0.8-0.6-1.1l0.9-0.2
		C70.5,6.6,70.8,7.1,71,7.5z M76.7,17.7V7.5h9.6v10.1h-1v-1h-7.6v1.1H76.7z M77.7,8.4v7.2h7.6V8.4C85.3,8.4,77.7,8.4,77.7,8.4z
		 M68.7,8.5c0.4,0.5,0.8,1.2,1,1.6l-0.8,0.4C68.7,10,68.3,9.3,68,8.8L68.7,8.5z M71.8,10.5h2.5v0.8h-7.8v-0.8h4.3
		c0.4-0.6,0.8-1.4,1.1-2l0.9,0.2C72.5,9.3,72.2,10,71.8,10.5z M74.5,12.8v0.8h-1.6c-0.3,1-0.7,1.8-1.3,2.4c1,0.4,1.9,0.9,2.5,1.3
		L73.5,18c-0.6-0.5-1.6-1-2.6-1.4c-1,0.7-2.4,1.1-4.3,1.4c-0.1-0.3-0.3-0.6-0.4-0.8c1.6-0.2,2.8-0.5,3.7-1c-0.9-0.4-1.8-0.7-2.7-1
		c0.3-0.4,0.7-1,1.1-1.6h-2v-0.8h2.4c0.3-0.5,0.5-0.9,0.7-1.4l0.9,0.2c-0.2,0.4-0.4,0.8-0.6,1.2C69.7,12.8,74.5,12.8,74.5,12.8z
		 M59,16.5c0,0.3,0,0.4,0.3,0.4h0.9c0.3,0,0.3-0.2,0.4-1.8c0.2,0.2,0.6,0.3,0.8,0.4c-0.1,1.8-0.3,2.2-1.1,2.2h-1.1
		c-0.9,0-1.1-0.3-1.1-1.2v-4.1H59V16.5z M53.1,17.2c2.1-0.8,2.4-2.2,2.5-4.7h0.9c-0.1,2.9-0.5,4.6-2.9,5.5
		C53.6,17.7,53.4,17.3,53.1,17.2z M70.7,15.6c0.6-0.5,1-1.2,1.2-2h-2.6c-0.2,0.4-0.5,0.9-0.8,1.2C69.2,15,70,15.3,70.7,15.6z
		 M47.3,17.2c-0.6-0.7-2-1.9-3-2.7L45,14c1.1,0.8,2.4,1.9,3.1,2.7L47.3,17.2z M37,16.6c1-0.6,2.1-1.6,2.8-2.5l1,0.3
		c-0.8,1-1.9,2.1-2.9,2.8C37.6,17,37.2,16.7,37,16.6z M49.6,16.3c1-0.3,2.6-0.7,4.2-1.2l0.2,0.8c-1.4,0.5-3,0.9-4.1,1.3L49.6,16.3z"
		/>
</g>
<g>
	<g>
		<defs>
			<rect id="SVGID_1_" width="24" height="24"/>
		</defs>
		<clipPath id="SVGID_2_">
			<use xlink:href="#SVGID_1_"  style="overflow:visible;"/>
		</clipPath>
		<g class="st1">
			<g id="polygon">
				<path class="st2" d="M18.6,20H5.4L1,12l4.4-8h13.2l4.4,8L18.6,20z"/>
			</g>
			<g id="polygon_1_">
				<path class="st3" d="M18.6,20.8H5.4c-0.3,0-0.5-0.1-0.7-0.4l-4.4-8c-0.1-0.2-0.1-0.5,0-0.7l4.4-8c0.1-0.2,0.4-0.4,0.7-0.4h13.2
					c0.3,0,0.5,0.1,0.7,0.4l4.4,8c0.1,0.2,0.1,0.5,0,0.7l-4.4,8C19.1,20.6,18.9,20.8,18.6,20.8z M5.8,19.3h12.3l4-7.3l-4-7.3H5.8
					l-4,7.3L5.8,19.3z"/>
			</g>
			<g id="rect">
				<rect x="9" y="7" class="st4" width="6" height="5"/>
			</g>
			<g id="rect_1_">
				<rect x="11" y="13" class="st4" width="2" height="7"/>
			</g>
			<g id="rect_2_">
				<rect x="11" y="8" class="st2" width="2" height="3"/>
			</g>
			<g id="rect_3_">
				<rect x="8" y="11" class="st4" width="8" height="6"/>
			</g>
		</g>
	</g>
</g>
</svg>
